# AST/ASF file generated using VICON BodyLanguage
# -----------------------------------------------
:version 1.10
:name VICON
:units
  mass 1.0
  length 0.45
  angle deg
:documentation
   .ast/.asf automatically generated from VICON data using
   VICON BodyBuilder and BodyLanguage model FoxedUp or BRILLIANT.MOD
:root
   order TX TY TZ RX RY RZ
   axis XYZ
   position 0 0 0  
   orientation 0 0 0 
:bonedata
  begin
     id 1 
     name lhipjoint
     direction 0.537252 -0.787203 0.302774 
     length 2.29576 
     axis 0 0 0  XYZ
  end
  begin
     id 2 
     name lfemur
     direction 0.34202 -0.939693 0  
     length 7.31114  
     axis 0 0 20  XYZ
    dof rx ry rz
    limits (-160.0 20.0)
           (-70.0 70.0)
           (-60.0 70.0)
  end
  begin
     id 3 
     name ltibia
     direction 0.34202 -0.939693 0   
     length 8.36008   
     axis 0 0 20   XYZ
    dof rx
    limits (-10.0 170.0)
  end
  begin
     id 4 
     name lfoot
     direction 0.0969116 -0.266263 0.959016   
     length 2.16704   
     axis -90 7.62852e-016 20   XYZ
    dof rx rz
    limits (-45.0 90.0)
           (-70.0 20.0)
  end
  begin
     id 5 
     name ltoes
     direction 1.53563e-011 -4.21779e-011 1   
     length 1.08338   
     axis -90 7.62852e-016 20   XYZ
    dof rx
    limits (-90.0 20.0)
  end
  begin
     id 6 
     name rhipjoint
     direction -0.588228 -0.754791 0.290308   
     length 2.39434  
     axis 0 0 0  XYZ 
  end
  begin
     id 7 
     name rfemur
     direction -0.34202 -0.939693 0   
     length 7.45207   
     axis 0 0 -20   XYZ
    dof rx ry rz
    limits (-160.0 20.0)
           (-70.0 70.0)
           (-70.0 60.0)
  end
  begin
     id 8 
     name rtibia
     direction -0.34202 -0.939693 0   
     length 8.03565   
     axis 0 0 -20   XYZ
    dof rx
    limits (-10.0 170.0)
 end
 begin
     id 9 
     name rfoot
     direction -0.107009 -0.294004 0.949795   
     length 2.11509  
     axis -90 -7.62852e-016 -20   XYZ
    dof rx rz
    limits (-45.0 90.0)
           (-20.0 70.0)
  end
  begin
     id 10 
     name rtoes
     direction -1.53533e-011 -4.22004e-011 1   
     length 1.05493   
     axis -90 -7.62852e-016 -20   XYZ
    dof rx
    limits (-90.0 20.0)
  end
  begin
     id 11 
     name lowerback
     direction -0.0115208 0.997969 -0.0626515   
     length 2.03153   
     axis 0 0 0   XYZ
    dof rx ry rz
    limits (-20.0 45.0)
           (-30.0 30.0)
           (-30.0 30.0)
  end
  begin
     id 12 
     name upperback
     direction -0.00423475 0.999974 -0.00583614   
     length 2.03619   
     axis 0 0 0   XYZ
    dof rx ry rz
    limits (-20.0 45.0)
           (-30.0 30.0)
           (-30.0 30.0)
  end
  begin
     id 13 
     name thorax
     direction 0.00289429 0.999728 0.0231573   
     length 2.03921   
     axis 0 0 0   XYZ
    dof rx ry rz
    limits (-20.0 45.0)
           (-30.0 30.0)
           (-30.0 30.0)
  end
  begin
     id 14 
     name lowerneck
     direction 0.0188995 0.987777 0.154721   
     length 1.78836   
     axis 0 0 0   XYZ
    dof rx ry rz
    limits (-20.0 45.0)
           (-30.0 30.0)
           (-30.0 30.0)
  end
  begin
     id 15 
     name upperneck
     direction -0.00612612 0.992995 -0.118   
     length 1.81789   
     axis 0 0 0   XYZ
    dof rx ry rz
    limits (-20.0 45.0)
           (-30.0 30.0)
           (-30.0 30.0)
  end
  begin
     id 16
     name head
     direction -0.00420226 0.998397 -0.0564482  
     length 1.82234  
     axis 0 0 0   XYZ
    dof rx ry rz
    limits (-20.0 45.0)
           (-30.0 30.0)
           (-30.0 30.0)
  end
  begin
     id 17 
     name lclavicle
     direction 0.916488 0.396539 0.0529676  
     length 3.51732  
     axis 0 0 0   XYZ
    dof ry rz
    limits (-20.0 10.0)
           (0.0 20.0)
  end
  begin
     id 18 
     name lhumerus
     direction 1 -4.4896e-011 8.36962e-028   
     length 5.45077   
     axis 180 -30 -90   XYZ
    dof rx ry rz
    limits (-60.0 90.0)
           (-90.0 90.0)
           (-90.0 90.0)
  end
  begin
     id 19
     name lradius
     direction 1 -4.48962e-011 3.01407e-027   
     length 3.05488   
     axis 180 -30 -90   XYZ
    dof rx
    limits (-10.0 170.0)
  end
  begin
     id 20
     name lwrist
     direction 1 -4.49002e-011 4.72961e-027   
     length 1.52744   
     axis -2.72261e-015 90 90   XYZ
    dof ry
    limits (-180.0 0.0)
 end
  begin
     id 21 
     name lhand
     direction 1 -4.4899e-011 9.45681e-027   
     length 0.638818   
     axis -6.0311e-015 90 90   XYZ
    dof rx rz
    limits (-90.0 90.0)
           (-45.0 45.0)
  end
  begin
     id 22 
     name lfingers
     direction 1 -4.48871e-011 1.88632e-026   
     length 0.515032   
     axis -1.20625e-014 90 90   XYZ
    dof rx
    limits (0.0 90.0)
  end
  begin
     id 23
     name lthumb
     direction 0.707107 -6.34964e-011 0.707107   
     length 0.739485   
     axis -90 45 6.32835e-014   XYZ
    dof rx rz
    limits (-45.0 45.0)
           (-45.0 45.0)
  end
  begin
     id 24 
     name rclavicle
     direction -0.949427 0.303202 0.0815894   
     length 3.76167  
     axis 0 0 0   XYZ 
    dof ry rz
    limits (-10.0 20.0)
           (-20.0 0.0)
  end
  begin
     id 25 
     name rhumerus
     direction -1 -4.48971e-011 -6.43969e-018  
     length 4.88702   
     axis 180 30 90   XYZ
    dof rx ry rz
    limits (-90.0 60.0)
           (-90.0 90.0)
           (-90.0 90.0)
  end
  begin
     id 26 
     name rradius
     direction -1 -4.48987e-011 5.46662e-027   
     length 3.22603   
     axis 180 30 90   XYZ
    dof rx
    limits (-10.0 170.0)
  end
  begin
     id 27 
     name rwrist
     direction -1 -4.48956e-011 4.72476e-027   
     length 1.61302   
     axis -2.72261e-015 -90 -90   XYZ
    dof ry
    limits (-180.0 0.0)
  end
  begin
     id 28
     name rhand
     direction -1 -4.4889e-011 9.43571e-027   
     length 0.716293   
     axis -6.0311e-015 -90 -90   XYZ
    dof rx rz
    limits (-90.0 90.0)
           (-45.0 45.0)
  end
  begin
     id 29
     name rfingers
     direction -1 -4.48887e-011 1.88701e-026   
     length 0.577494   
     axis -1.20625e-014 -90 -90   XYZ
    dof rx
    limits (0.0 90.0)
  end
  begin
     id 30
     name rthumb
     direction -0.707107 -6.34825e-011 0.707107   
     length 0.829169   
     axis -90 -45 -6.32835e-014   XYZ
    dof rx rz
    limits (-45.0 45.0)
           (-45.0 45.0)
  end
:hierarchy
  begin
    root lhipjoint rhipjoint lowerback
    lhipjoint lfemur
    lfemur ltibia
    ltibia lfoot
    lfoot ltoes
    rhipjoint rfemur
    rfemur rtibia
    rtibia rfoot
    rfoot rtoes
    lowerback upperback
    upperback thorax
    thorax lowerneck lclavicle rclavicle
    lowerneck upperneck
    upperneck head
    lclavicle lhumerus
    lhumerus lradius
    lradius lwrist
    lwrist lhand lthumb
    lhand lfingers
    rclavicle rhumerus
    rhumerus rradius
    rradius rwrist
    rwrist rhand rthumb
    rhand rfingers
  end

#!OML:ASF F:\VICON\USERDATA\INSTALL\rory3\rory3.ASF
:FULLY-SPECIFIED
:DEGREES
1354
root 1.71958 18.5299 0.626804 11.5536 70.9744 -0.721206
lowerback -12.7558 -7.09294 -3.302
upperback -6.35221 -8.56516 -5.21708
thorax 0.0544829 -4.15237 -4.68058
lowerneck -10.4921 -15.687 -9.61326
upperneck -1.4358 -19.796 6.29181
head 3.03794 -9.5962 2.24981
rclavicle 3.18055e-014 -1.27222e-014
rhumerus 42.7206 -34.3539 -74.4771
rradius 89.8543
rwrist -183.776
rhand -6.68386 -8.49888
rfingers 7.12502
rthumb 19.1749 -37.5736
lclavicle 3.18055e-014 -1.27222e-014
lhumerus 57.7653 -45.7312 69.179
lradius 91.437
lwrist 236.093
lhand -14.6186 -21.9411
lfingers 7.12502
lthumb 11.5326 7.72167
rfemur -10.6641 7.80507 14.9508
rtibia -7.55382e-015
rfoot 0.555092 10.4159
rtoes 1.19272
lfemur -10.3946 10.02 -19.5068
ltibia 14.2461
lfoot -16.6488 12.9606
ltoes -23.455
1355
root 1.71965 18.5289 0.626322 11.7289 70.8954 -0.493153
lowerback -12.6345 -7.13409 -3.31064
upperback -6.38429 -8.6275 -5.28487
thorax -0.0578556 -4.18463 -4.73571
lowerneck -10.4848 -15.6289 -9.64324
upperneck -1.4688 -19.712 6.26869
head 3.01941 -9.55501 2.25818
rclavicle 1.41137e-013 2.8625e-014
rhumerus 45.3479 -34.2595 -75.0127
rradius 87.1718
rwrist -182.812
rhand -7.09962 -8.2537
rfingers 7.12502
rthumb 18.775 -37.3676
lclavicle 1.41137e-013 2.8625e-014
lhumerus 59.3101 -45.0837 69.5491
lradius 89.0717
lwrist 237.271
lhand -15.0185 -21.6423
lfingers 7.12502
lthumb 11.1469 8.04165
rfemur -10.632 7.86571 14.8478
rtibia -1.82882e-014
rfoot 0.553603 10.4652
rtoes 1.12185
lfemur -10.3416 10.2061 -19.6105
ltibia 14.2303
lfoot -16.6349 12.8758
ltoes -23.5957
1356
root 1.71959 18.5288 0.62673 12.1148 70.9344 -0.130364
lowerback -12.5979 -7.20396 -3.33858
upperback -6.43894 -8.71565 -5.38666
thorax -0.153936 -4.22829 -4.82858
lowerneck -10.4359 -15.5672 -9.52407
upperneck -1.50785 -19.6421 6.16937
head 2.96473 -9.5245 2.22348
rclavicle -7.43455e-014 -6.36111e-015
rhumerus 47.9616 -34.1849 -75.5477
rradius 84.3975
rwrist -181.634
rhand -7.77116 -8.12472
rfingers 7.12502
rthumb 18.129 -37.2999
lclavicle -7.43455e-014 -6.36111e-015
lhumerus 60.7469 -44.5854 69.9895
lradius 86.6669
lwrist 238.112
lhand -16.3556 -21.719
lfingers 7.12502
lthumb 9.85708 8.03023
rfemur -10.6656 7.79572 14.7217
rtibia 3.53837e-014
rfoot 0.555556 10.4587
rtoes 0.926694
lfemur -10.3905 10.289 -19.7432
ltibia 14.1907
lfoot -16.6207 12.7153
ltoes -23.2877
1357
root 1.72158 18.5296 0.626415 12.3006 71.0336 0.0174244
lowerback -12.6317 -7.20764 -3.25337
upperback -6.44827 -8.7214 -5.52013
thorax -0.181488 -4.2347 -5.01825
lowerneck -10.3759 -15.5701 -9.43125
upperneck -1.51682 -19.6614 6.13098
head 2.93629 -9.53661 2.20131
rclavicle -8.11041e-014 -2.8625e-014
rhumerus 50.4976 -34.4562 -75.9148
rradius 81.5721
rwrist -180.502
rhand -9.18304 -8.08542
rfingers 7.12502
rthumb 16.7702 -37.3811
lclavicle -8.11041e-014 -2.8625e-014
lhumerus 62.3684 -44.329 70.2816
lradius 84.3878
lwrist 238.706
lhand -18.2817 -22.3534
lfingers 7.12502
lthumb 7.99846 7.47526
rfemur -10.688 7.68329 14.6872
rtibia 1.47101e-014
rfoot 0.540888 10.4493
rtoes 1.05746
lfemur -10.418 10.2864 -19.7832
ltibia 14.1464
lfoot -16.602 12.5645
ltoes -23.0489
1358
root 1.72345 18.531 0.625691 12.2397 71.1164 -0.0530466
lowerback -12.6411 -7.21755 -3.11899
upperback -6.40979 -8.74595 -5.59414
thorax -0.169913 -4.25248 -5.17476
lowerneck -10.4308 -15.5906 -9.47741
upperneck -1.51226 -19.6786 6.16471
head 2.95875 -9.54228 2.212
rclavicle -4.45278e-014 9.54166e-015
rhumerus 53.0751 -34.7095 -76.4058
rradius 78.8352
rwrist -179.463
rhand -10.6793 -8.01846
rfingers 7.12502
rthumb 15.3294 -37.4303
lclavicle -4.45278e-014 9.54166e-015
lhumerus 63.8569 -43.9772 70.7506
lradius 82.0358
lwrist 238.96
lhand -19.643 -22.2371
lfingers 7.12502
lthumb 6.68447 7.63736
rfemur -10.6663 7.60698 14.7303
rtibia 4.77083e-015
rfoot 0.435752 10.4395
rtoes 0.72153
lfemur -10.4361 10.4064 -19.7545
ltibia 14.1441
lfoot -16.4657 12.4387
ltoes -23.5061
